<?xml version="1.0" encoding="utf-8"?>
<!-- Generator: Adobe Illustrator 25.4.1, SVG Export Plug-In . SVG Version: 6.00 Build 0)  -->
<svg version="1.1" id="Layer_1" xmlns="http://www.w3.org/2000/svg" xmlns:xlink="http://www.w3.org/1999/xlink" x="0px" y="0px"
	 viewBox="0 0 32 32" style="enable-background:new 0 0 32 32;" xml:space="preserve">
<style type="text/css">
	.st0{fill:url(#SVGID_1_);}
	.st1{fill:url(#SVGID_00000120551475610957725830000014301307768496323743_);}
	.st2{fill:url(#SVGID_00000163046245398794058280000016407026533306372493_);}
</style>
<g>
	<linearGradient id="SVGID_1_" gradientUnits="userSpaceOnUse" x1="3.4261" y1="25.8584" x2="14.3099" y2="11.1889">
		<stop  offset="0" style="stop-color:#00A2FF"/>
		<stop  offset="0.1421" style="stop-color:#009BF6"/>
		<stop  offset="0.3755" style="stop-color:#0089DD"/>
		<stop  offset="0.6711" style="stop-color:#006CB5"/>
		<stop  offset="1" style="stop-color:#004680"/>
	</linearGradient>
	<path class="st0" d="M11.3,7.1c-1.3,0.9-2.8,3-2.8,3l-7.1,12C0,24.6,2,27.6,5.3,27.7c2.3,0.1,4.3-1.1,5.3-2.8l8.1-13.5
		C18.7,11.4,12.6,6.2,11.3,7.1z"/>
	
		<linearGradient id="SVGID_00000127039742956914497300000006003547440012628157_" gradientUnits="userSpaceOnUse" x1="19.722" y1="27.9453" x2="19.722" y2="2.852">
		<stop  offset="0" style="stop-color:#00DBFF"/>
		<stop  offset="0.3465" style="stop-color:#00A2FF"/>
	</linearGradient>
	<path style="fill:url(#SVGID_00000127039742956914497300000006003547440012628157_);" d="M8.5,10.1c0.9-1.6,2.9-1.2,3.6-0.2
		l3.7,6.2l1.3,2.2l2.1,3.5c1.2,2,0.3,4.5-2,5.5c-0.7,0.3-1.5,0.5-2.3,0.5h11.1c0.8,0,1.5-0.1,2.3-0.5c2.3-1,3.2-3.5,2-5.5l-10.2-17
		c-1.8-2.9-6.7-2.9-8.5,0L8.5,10.1z"/>
	
		<linearGradient id="SVGID_00000015353402308818971450000000956220148454022293_" gradientUnits="userSpaceOnUse" x1="9.0266" y1="19.5458" x2="18.6776" y2="24.994">
		<stop  offset="0" style="stop-color:#006DBA"/>
		<stop  offset="1" style="stop-color:#003873"/>
	</linearGradient>
	<path style="fill:url(#SVGID_00000015353402308818971450000000956220148454022293_);" d="M17.2,18.4l-8.8,0c-0.8,0-1.4,0.8-1,1.4
		l3.4,5.9c0.8,1.4,2.5,2.2,4.2,2.2c0.8,0,1.5-0.1,2.3-0.5c2.3-1,3.2-3.5,2-5.5L17.2,18.4z"/>
</g>
</svg>
