<?xml version="1.0" encoding="utf-8"?>
<!-- Generator: Adobe Illustrator 25.4.1, SVG Export Plug-In . SVG Version: 6.00 Build 0)  -->
<svg version="1.1" id="Layer_1" xmlns="http://www.w3.org/2000/svg" xmlns:xlink="http://www.w3.org/1999/xlink" x="0px" y="0px"
	 viewBox="0 0 32 32" style="enable-background:new 0 0 32 32;" xml:space="preserve">
<style type="text/css">
	.st0{fill:url(#SVGID_1_);}
	.st1{fill:url(#SVGID_00000158743147366761808080000012553081071490394287_);}
	.st2{fill:url(#SVGID_00000124860828519987609950000010267512140461297288_);}
</style>
<g>
	<linearGradient id="SVGID_1_" gradientUnits="userSpaceOnUse" x1="3.4085" y1="26.6094" x2="14.5132" y2="11.6422">
		<stop  offset="0" style="stop-color:#00A2FF"/>
		<stop  offset="0.1421" style="stop-color:#009BF6"/>
		<stop  offset="0.3755" style="stop-color:#0089DD"/>
		<stop  offset="0.6711" style="stop-color:#006CB5"/>
		<stop  offset="1" style="stop-color:#004680"/>
	</linearGradient>
	<path class="st0" d="M11.4,7.2c-1.3,1-2.7,3.2-2.7,3.2L1.9,22.9c-1.4,2.6,0.5,5.7,3.7,5.9c2.2,0.1,4.2-1.1,5.2-2.9l7.8-14.2
		C18.5,11.7,12.6,6.2,11.4,7.2z"/>
	
		<linearGradient id="SVGID_00000150103457000946403020000014599596476468052155_" gradientUnits="userSpaceOnUse" x1="19.4681" y1="29.0546" x2="19.4681" y2="2.7001">
		<stop  offset="0" style="stop-color:#00DBFF"/>
		<stop  offset="0.3465" style="stop-color:#00A2FF"/>
	</linearGradient>
	<path style="fill:url(#SVGID_00000150103457000946403020000014599596476468052155_);" d="M8.7,10.3c0.9-1.7,2.8-1.3,3.4-0.2
		l3.6,6.5L17,19l2,3.7c1.2,2.1,0.3,4.7-2,5.8c-0.7,0.3-1.5,0.5-2.2,0.5h10.7c0.7,0,1.5-0.1,2.2-0.5c2.3-1.1,3.1-3.7,2-5.8L19.9,4.9
		c-1.7-3.1-6.4-3.1-8.2,0L8.7,10.3z"/>
	
		<linearGradient id="SVGID_00000044897558880802165700000013676076987720659848_" gradientUnits="userSpaceOnUse" x1="9.0379" y1="20.4507" x2="18.5476" y2="25.8191">
		<stop  offset="0" style="stop-color:#006DBA"/>
		<stop  offset="1" style="stop-color:#003873"/>
	</linearGradient>
	<path style="fill:url(#SVGID_00000044897558880802165700000013676076987720659848_);" d="M17,19l-8.5,0c-0.8,0-1.3,0.8-1,1.5
		l3.3,6.2c0.8,1.4,2.4,2.3,4,2.3c0.7,0,1.5-0.1,2.2-0.5c2.3-1.1,3.1-3.7,2-5.8L17,19z"/>
</g>
</svg>
