<?xml version="1.0" encoding="utf-8"?>
<!-- Generator: Adobe Illustrator 25.4.1, SVG Export Plug-In . SVG Version: 6.00 Build 0)  -->
<svg version="1.1" id="Layer_1" xmlns="http://www.w3.org/2000/svg" xmlns:xlink="http://www.w3.org/1999/xlink" x="0px" y="0px"
	 viewBox="0 0 32 32" style="enable-background:new 0 0 32 32;" xml:space="preserve">
<style type="text/css">
	.st0{fill:url(#SVGID_1_);}
	.st1{fill:url(#SVGID_00000059305453275124231820000003547420583386086028_);}
	.st2{fill:url(#SVGID_00000052792029581611892390000005495319837993336244_);}
</style>
<g>
	<linearGradient id="SVGID_1_" gradientUnits="userSpaceOnUse" x1="2.5082" y1="27.2639" x2="14.2311" y2="11.4635">
		<stop  offset="0" style="stop-color:#00A2FF"/>
		<stop  offset="0.1421" style="stop-color:#009BF6"/>
		<stop  offset="0.3755" style="stop-color:#0089DD"/>
		<stop  offset="0.6711" style="stop-color:#006CB5"/>
		<stop  offset="1" style="stop-color:#004680"/>
	</linearGradient>
	<path class="st0" d="M11,7c-1.4,1-3,3.3-3,3.3l-7.6,13c-1.6,2.7,0.6,5.9,4.1,6.1c2.4,0.1,4.6-1.2,5.7-3l8.7-14.6
		C18.9,11.7,12.4,6,11,7z"/>
	
		<linearGradient id="SVGID_00000134930509018889599040000009715123748624269442_" gradientUnits="userSpaceOnUse" x1="19.9662" y1="29.5658" x2="19.9662" y2="2.404">
		<stop  offset="0" style="stop-color:#00DBFF"/>
		<stop  offset="0.3465" style="stop-color:#00A2FF"/>
	</linearGradient>
	<path style="fill:url(#SVGID_00000134930509018889599040000009715123748624269442_);" d="M8,10.3c1-1.7,3.1-1.4,3.8-0.2l4,6.7
		l1.4,2.4l2.2,3.8c1.3,2.2,0.3,4.8-2.2,6c-0.8,0.4-1.6,0.5-2.4,0.5h11.8c0.8,0,1.7-0.1,2.4-0.5c2.5-1.1,3.5-3.8,2.2-6L20.4,4.7
		c-1.9-3.2-7.1-3.2-9,0L8,10.3z"/>
	
		<linearGradient id="SVGID_00000152957482969760913220000015292974791691981213_" gradientUnits="userSpaceOnUse" x1="8.5264" y1="20.5109" x2="18.8656" y2="26.3476">
		<stop  offset="0" style="stop-color:#006DBA"/>
		<stop  offset="1" style="stop-color:#003873"/>
	</linearGradient>
	<path style="fill:url(#SVGID_00000152957482969760913220000015292974791691981213_);" d="M17.3,19.2l-9.4,0c-0.9,0-1.5,0.8-1.1,1.5
		l3.7,6.4c0.9,1.5,2.6,2.3,4.4,2.4c0.8,0,1.7-0.1,2.4-0.5c2.5-1.1,3.5-3.8,2.2-6L17.3,19.2z"/>
</g>
</svg>
